<?xml version="1.0" encoding="UTF-8" standalone="no"?>
<svg width="220.63" xmlns="http://www.w3.org/2000/svg" height="270.37">
 <g id="Layer_1">
  <g id="svg_1">
   <g id="svg_2">
    <g id="svg_3" fill-rule="evenodd" stroke="#a7c4b5" stroke-miterlimit="10" stroke-width=".036" fill="#a7c4b5">
     <path id="svg_4" d="m57.064 149.35c3.924-1.655 11.088-3.456 16.344-5.256 5.22-1.836 11.016-3.563 14.616-5.58 3.348-2.052 5.22-3.852 5.904-6.948 0.648-3.312-2.196-8.388-1.728-12.168s2.664-5.58 4.5-10.116c1.8-4.752 4.572-15.229 5.94-17.388 1.188-2.088 2.52 0.035995 1.368 4.86-1.26 4.716-7.272 17.748-8.46 23.256-1.188 5.292 1.728 5.724 1.548 8.784-0.288 2.988 1.512 5.76-3.06 9.144-4.788 3.204-17.028 8.064-24.48 10.692-7.488 2.556-17.316 4.68-19.476 4.86-2.124-0.035995 3.024-2.52 6.984-4.14z"/>
     <path id="svg_5" d="m57.748 169.15c-1.404 1.224-8.388 2.483-12.888 4.176-4.5 1.584-10.368 5.58-13.572 5.58-3.276-0.10799-4.968-1.62-5.904-5.94-1.008-4.428-2.196-11.196 0.324-20.16 2.52-9.18 11.088-24.192 14.616-33.768 3.312-9.684 2.628-18.288 5.58-23.328 3.06-4.968 8.136-5.544 12.168-6.588 3.852-1.224 11.16-0.792 10.8-0.35999-0.612 0.35999-10.62 1.188-13.932 2.772-3.348 1.548-4.068 1.44-5.904 6.624-2.052 5.148-2.16 15.588-5.58 24.372-3.528 8.784-12.096 19.404-14.616 27.829-2.448 8.208-2.232 18.035-0.324 21.563 1.836 3.384 7.02 0.28799 11.124-0.68401 3.924-1.044 9.396-4.86 12.528-5.221 3.024-0.431 6.732 1.909 5.58 3.133z"/>
     <path id="svg_6" d="m64.336 172.28c-0.936 0.79201 0.684 11.628 0 17.388-0.756 5.652-3.024 11.484-4.176 16.38-1.26 4.86-3.384 12.024-2.772 12.168 0.504-0.216 4.212-6.983 6.264-12.527 2.052-5.725 5.688-14.832 5.904-20.521-0.036003-5.652-4.32-13.644-5.22-12.888z"/>
     <path id="svg_7" d="m136.73 169.83c-0.468 0.43199 0.576 11.664 1.872 18 1.296 6.3 3.853 15.048 5.725 19.44 1.728 4.319 5.363 9.54 4.932 6.084-0.648-3.816-5.904-20.557-7.992-27.864-2.232-7.416-4.068-16.02-4.537-15.66z"/>
     <path id="svg_8" d="m117.94 150.71c3.133 2.124 12.78 7.057 20.196 10.765 7.38 3.636 16.2 8.208 22.968 10.8 6.48 2.448 11.988 2.844 15.984 3.815 3.888 0.864 5.22 2.305 7.308 1.404 2.052-1.116 5.904-0.43201 4.896-7.668-1.152-7.416-6.876-24.588-11.484-35.82-4.823-11.232-12.276-23.832-16.38-30.996-4.032-7.2-3.384-9.684-7.632-12.168-4.5-2.592-16.488-3.132-18.468-3.132-1.908-0.18 3.708 1.44 6.983 2.772 3.24 1.332 7.992 0.108 12.168 5.22 4.032 4.968 7.668 15.012 12.168 24.732 4.536 9.648 11.305 24.552 14.616 33.048 3.204 8.531 6.192 14.328 4.536 17.388-1.872 2.772-7.668 1.692-15.3-0.324-7.92-2.124-22.068-8.244-30.636-11.844-8.532-3.636-16.164-8.46-19.837-9.756-3.67-1.368-5.145-0.36002-2.086 1.764z"/>
     <path id="svg_9" d="m108.18 94.338c0.576 0.324 1.8 9.936 3.132 14.94 1.225 4.896 2.988 9.792 4.177 14.292 0.972 4.392 0.54 8.784 2.447 11.808 1.908 2.809 4.068 3.276 9.396 5.58 5.22 2.269 21.924 7.344 21.924 7.992-0.21599 0.504-16.596-2.412-22.608-4.86-6.155-2.628-10.8-6.479-13.247-10.44-2.305-4.104-0.288-8.784-1.045-13.212-0.972-4.536-3.815-8.46-4.5-12.888-0.684-4.536-0.396-13.428 0.324-13.212z"/>
     <path id="svg_10" d="m84.172 155.21c2.088-0.79201 14.976-7.344 18.792-10.764 3.564-3.492 2.664-4.428 3.132-9.756 0.396-5.544 0.144-20.988-0.324-22.608-0.576-1.512-1.908 8.352-2.448 13.212-0.576 4.644 1.368 10.98-0.684 14.977-2.196 3.852-8.784 6.191-11.844 8.676-3.132 2.591-8.712 6.803-6.624 6.263z"/>
     <path id="svg_11" d="m81.04 80.766c0.144-1.224 6.048-5.544 7.308-9.072 1.152-3.708 0.792-7.272-0.396-12.636-1.368-5.616-5.688-14.868-7.272-19.836-1.62-5.004-3.024-5.472-2.412-9.612 0.612-4.284 3.096-10.836 5.904-15.336 2.664-4.716 6.228-9.36 10.116-11.844 3.815-2.376 12.06-2.808 12.528-2.412 0.216 0.252-7.2 1.836-10.44 4.176-3.24 2.124-6.192 4.788-8.712 9.396-2.7 4.716-6.516 12.24-6.588 18.396 0.036003 5.94 4.464 11.736 6.48 17.532 1.836 5.796 4.968 11.916 4.968 16.956 0 4.968-3.132 9.792-4.968 12.384-1.98 2.34-6.696 3.024-6.516 1.908z"/>
     <path id="svg_12" d="m97.708 59.346c0-0.396 3.492-3.276 5.904-3.204 2.196 0.036003 7.416 2.556 7.596 3.528-0.036003 0.9-4.572 1.872-6.804 2.088-2.196 0.072002-7.092-0.828-6.372-1.152 0.648-0.288 9.108-0.648 10.224-0.936 0.9-0.54-2.448-1.62-4.212-1.692-1.872-0.035999-6.3 1.584-6.336 1.368z"/>
     <path id="svg_13" d="m105.05 46.926c0.756 1.44 3.312 5.22 2.952 6.48-0.504 1.152-5.004 0.9-5.292 0.756-0.216-0.108 3.348-0.468 3.6-1.908-0.035995-1.584-2.88-6.624-3.096-7.488-0.18-0.972 0.936 0.72 1.836 2.16z"/>
     <path id="svg_14" d="m87.664 35.514c0.035995-0.36 2.124-3.528 4.86-3.132 2.592 0.504 10.728 5.148 10.8 5.58-0.071999 0.035999-8.208-3.672-10.8-4.176-2.736-0.36-4.824 1.836-4.86 1.728z"/>
     <path id="svg_15" d="m121.76 36.198c-0.145-0.36-2.232-3.528-4.86-3.132-2.7 0.504-10.836 5.148-10.8 5.58-0.036003 0.035999 8.1-3.672 10.8-4.176 2.627-0.36 4.715 1.836 4.86 1.728z"/>
     <path id="svg_16" d="m89.392 41.418c0.144 0.432 3.132 2.916 5.22 3.132 1.836 0 6.372-1.908 6.264-2.412-0.288-0.468-4.968-0.36-6.948-0.36-2.016-0.144-4.68-0.864-4.536-0.36z"/>
     <path id="svg_17" d="m106.46 41.778c0.144 0.432 3.132 2.916 5.22 3.132 1.836 0.035999 6.372-1.98 6.264-2.448-0.287-0.504-4.968-0.288-6.948-0.324-2.016-0.144-4.68-0.864-4.536-0.36z"/>
     <path id="svg_18" d="m127.7 23.346c-0.396-0.324 1.225 9.216 0 15.3-1.331 5.94-8.1 19.656-7.668 20.196 0.469 0.288 8.641-11.736 10.08-17.748 1.189-6.156-2.015-17.208-2.412-17.748z"/>
     <path id="svg_19" d="m148.58 125.98c0.53999 2.016 9.359 18.792 10.764 20.196 1.26 1.261-1.404-8.819-3.132-12.167-1.872-3.493-8.172-10.009-7.632-8.029z"/>
     <path id="svg_20" d="m105.05 229.7c1.116-1.08 9.18-1.296 11.844-3.132 2.484-1.944 1.765-6.769 3.816-8.353 1.944-1.691 4.68-1.979 8.352-1.403 3.708 0.647 9.576 3.995 13.572 4.896 3.888 0.79201 5.472 0.72 9.756-0.36 4.104-1.296 9.108-7.02 15.3-6.624 6.156 0.505 21.133 8.677 21.601 9.396 0.28799 0.504-13.248-6.229-19.513-5.904-6.264 0.252-11.268 7.2-18.071 7.668-6.984 0.36-18.504-5.076-23.328-5.22-4.86-0.18001-2.556 2.052-5.58 4.176-3.168 1.98-9.9 7.092-12.852 7.992-3.097 0.72-5.977-2.124-4.897-3.132z"/>
     <path id="svg_21" d="m197.28 230.06c0.10701-0.756 13.067 4.429 17.063 8.353 3.889 3.816 6.48 10.224 6.264 14.939-0.43199 4.717-3.815 10.332-8.352 13.248-4.68 2.736-2.016 4.536-18.792 3.456-17.028-1.332-70.416-8.424-81.432-10.439-10.836-1.944 3.96-2.16 16.344-1.044 12.42 1.116 43.38 6.191 57.06 7.308 13.5 0.89999 18.756-0.14401 23.688-1.728 4.752-1.729 4.5-4.788 5.22-8.353 0.828-3.708 1.98-8.892-0.72-13.212-2.879-4.428-16.523-11.844-16.343-12.528z"/>
     <path id="svg_22" d="m16.312 232.15c-1.152 0.39601-11.34 5.147-13.896 9.396-2.592 4.176-3.456 10.764-1.044 15.3 2.484 4.429 8.855 8.964 15.66 11.124 6.696 1.944 24.48 1.548 24.336 1.044-0.432-0.61102-19.332-1.403-25.74-4.176-6.336-2.844-10.656-8.316-11.844-12.528-1.26-4.355 2.34-9.468 4.536-12.852 2.088-3.42 8.82-7.704 7.992-7.308z"/>
     <path id="svg_23" d="m73.408 228.29c-0.864-0.899-10.62-6.12-15.66-7.308-5.112-1.116-10.152 0.28801-14.292 0.72-4.212 0.28799-9.504 0.468-10.44 1.368-0.972 0.899 1.908 3.96 4.896 4.176 2.952 0.071991 8.712-2.771 12.852-3.132 4.032-0.324 7.632 0.252 11.484 1.044 3.852 0.68399 11.736 3.672 11.16 3.132z"/>
     <path id="svg_24" d="m67.828 262.75c4.572-2.124 29.304-10.944 40.032-14.256 10.44-3.456 16.632-3.528 22.608-5.904 5.94-2.483 12.456-9 12.888-8.712 0.32399 0.324-5.544 7.596-10.8 10.44-5.436 2.699-12.708 3.096-21.24 5.903-8.64 2.772-22.68 8.244-29.916 10.44-7.308 2.089-18.036 4.033-13.572 2.089z"/>
     <path id="svg_25" d="m104.33 8.73c0.108 0.396-2.592 7.704-5.724 10.692-3.204 2.844-12.708 6.768-12.96 6.48-0.252-0.468 8.244-5.94 11.448-8.784 3.132-2.988 6.84-8.748 7.236-8.388z"/>
     <path id="svg_26" d="m110.42 9.882c-0.252 0.324 1.044 3.996 3.06 5.724 1.908 1.62 7.992 3.996 8.389 3.816 0.070999-0.432-4.86-4.104-6.876-5.724-2.017-1.728-4.321-4.068-4.573-3.816z"/>
     <path id="svg_27" d="m71.284 96.534c-0.252-0.972 0.576 10.152-0.864 17.424-1.692 7.092-9 24.156-8.712 25.236 0.324 0.828 8.712-11.988 10.44-19.152 1.584-7.272-0.648-22.428-0.86401-23.508z"/>
     <path id="svg_28" d="m78.232 92.178c0.864-0.108 5.148 3.852 7.848 5.22 2.592 1.224 8.676 2.412 7.848 2.592-1.044 0.108-10.404-0.468-13.068-1.728-2.664-1.44-3.492-5.868-2.628-6.084z"/>
     <path id="svg_29" d="m114.84 100.89c-0.252-0.432 4.68 0.468 7.848-0.9 3.097-1.584 10.009-8.208 10.44-7.812 0.216 0.396-5.652 8.928-8.712 10.44-3.204 1.44-9.216-1.404-9.576-1.728z"/>
     <path id="svg_30" d="m77.152 204.82c1.98-0.53999 16.2 1.728 24.588 1.512 8.316-0.28801 23.22-3.384 25.128-2.916 1.584 0.43199-8.137 4.5-14.437 5.544-6.336 0.864-16.776 0.79201-22.716 0.072006-5.939-0.79201-14.615-3.816-12.563-4.212z"/>
    </g>
   </g>
  </g>
 </g>
</svg>
